inDegrees=no
num_controls=7
num_derivatives=13
num_iterations=39
num_multipliers=7
num_parameters=0
num_slacks=7
num_states=26
objective=0.426495
objective_accelerations=0.058114
objective_balance=0.001150
objective_effort=0.015348
objective_height=0.345927
objective_ligament=0.005956
solver_duration=567.819673
status=Solve_Succeeded
success=true
DataType=double
version=3
OpenSimVersion=4.5
endheader
time	/jointset/ground_pelvis/pelvis_tilt/value	/jointset/ground_pelvis/pelvis_tx/value	/jointset/ground_pelvis/pelvis_ty/value	/jointset/hip_l/hip_flexion_l/value	/jointset/hip_l/hip_adduction_l/value	/jointset/hip_l/hip_rotation_l/value	/jointset/back/lumbar_extension/value	/jointset/patellofemoral_l/patellar_flexion_l/value	/jointset/knee_l/knee_flexion_l/value	/jointset/knee_l/knee_adduction_l/value	/jointset/knee_l/knee_rotation_l/value	/jointset/ankle_l/ankle_angle_l/value	/jointset/subtalar_l/subtalar_angle_l/value	/jointset/ground_pelvis/pelvis_tilt/speed	/jointset/ground_pelvis/pelvis_tx/speed	/jointset/ground_pelvis/pelvis_ty/speed	/jointset/hip_l/hip_flexion_l/speed	/jointset/hip_l/hip_adduction_l/speed	/jointset/hip_l/hip_rotation_l/speed	/jointset/back/lumbar_extension/speed	/jointset/patellofemoral_l/patellar_flexion_l/speed	/jointset/knee_l/knee_flexion_l/speed	/jointset/knee_l/knee_adduction_l/speed	/jointset/knee_l/knee_rotation_l/speed	/jointset/ankle_l/ankle_angle_l/speed	/jointset/subtalar_l/subtalar_angle_l/speed	/forceset/tau_hip_flexion_l	/forceset/tau_hip_adduction_l	/forceset/tau_hip_rotation_l	/forceset/tau_knee_flexion_l	/forceset/tau_ankle_angle_l	/forceset/tau_subtalar_angle_l	/forceset/tau_lumbar_extension	lambda_cid13_p0	lambda_cid13_p1	lambda_cid13_p2	lambda_cid13_p3	lambda_cid13_p4	lambda_cid13_p5	lambda_cid14_p0	/jointset/ground_pelvis/pelvis_tilt/accel	/jointset/ground_pelvis/pelvis_tx/accel	/jointset/ground_pelvis/pelvis_ty/accel	/jointset/hip_l/hip_flexion_l/accel	/jointset/hip_l/hip_adduction_l/accel	/jointset/hip_l/hip_rotation_l/accel	/jointset/back/lumbar_extension/accel	/jointset/patellofemoral_l/patellar_flexion_l/accel	/jointset/knee_l/knee_flexion_l/accel	/jointset/knee_l/knee_adduction_l/accel	/jointset/knee_l/knee_rotation_l/accel	/jointset/ankle_l/ankle_angle_l/accel	/jointset/subtalar_l/subtalar_angle_l/accel	gamma_cid13_p0	gamma_cid13_p1	gamma_cid13_p2	gamma_cid13_p3	gamma_cid13_p4	gamma_cid13_p5	gamma_cid14_p0
0	0.04808457985187359	0.1080583454316582	0.9028690091494608	0.1266922784136757	-0.3700468725965916	-0.224698267199494	-0.2144969558742783	0.2051545070141871	0.2051545070141877	-0.1744073091370142	-0.1598893471153383	0.09024313228550125	0.07901542677648291	0	0	0	0	0	0	0	0	0	0	0	0	0	0.111855874554128	-0.03395931288835361	-0.009665659906422926	-0.2453401321620274	0.1871061274895056	-0.107877846037849	-0.04517873801242442	27.98462091980723	43.03537992883047	-8.380142243287461	-18.82248826882646	-441.4386770895024	-29.76805700725042	-26.2372256856171	-3.558256780803234	-1.026576381152436	-0.8213935256570115	11.43024245773715	0.06127514762704937	2.835905961578856	-3.037109570737538	10.28359277335067	10.28359277334812	2.648769734091189	-1.060133430562746	3.417488073249875	1.05733575291168	1.217517654037061e-08	4.571977530865261e-07	-3.131493780663463e-07	5.667474966346612e-08	-7.539186086076234e-08	3.970527765894187e-07	8.849615767629113e-08
0.01	0.04791517378005902	0.1080077234283508	0.9028288518847749	0.1272488159448106	-0.3700446170613823	-0.224545036158053	-0.2146585161841169	0.2056591723432346	0.205659172343308	-0.1742795727474129	-0.1599283137705592	0.0904118521267127	0.07906663023729106	-0.03367751446740573	-0.01008063081114207	-0.008042924649444149	0.1109387979716896	0.0002668315496187019	0.03092129010141583	-0.03260691350377096	0.1008052497271446	0.100805249727154	0.02511748309721835	-0.007556163039978919	0.03373255548221228	0.01003613140387211	0.1130345774004709	-0.04338702896148394	-0.009837292201818863	-0.2481567271058779	0.1891841386141336	-0.1005434060500489	-0.04608794445170315	29.11957185161826	39.69850299345767	-7.9020558571238	-20.04339741706737	-440.952285974033	-36.95043975406494	-26.23729645582504	-3.24193737857872	-0.9922296203495387	-0.7974777697095691	10.87039670922118	-0.0182655925770224	3.261562414588295	-3.416709969991723	9.959800959400285	9.959800959402948	2.378807705215105	-0.5678438199662301	3.349437280522772	0.9460333212456962	1.399820762852847e-09	7.851926372082255e-07	-1.803222613668982e-07	8.742147607597391e-08	-2.093706973368686e-07	3.291110840007597e-07	1.15777364069144e-07
0.02	0.04741510484379075	0.107857610479079	0.9027079182065716	0.128903681104116	-0.3700452237609186	-0.2240743278395199	-0.2151549911749275	0.2071680521470537	0.2071680521470615	-0.1739135475050451	-0.1600357392718845	0.09091755712174542	0.07921205130956321	-0.06613257288956964	-0.01989818919288264	-0.0161552827035166	0.2196655256367792	-0.0005724469489541578	0.06349545540944802	-0.06698293619926123	0.2008428949344465	0.2008428949344732	0.04765777050151841	-0.01369176924999881	0.06739703075706828	0.01884352229256163	0.1142132802468297	-0.05281474503492593	-0.01000892449776599	-0.2509733220497149	0.1912621497386723	-0.09320896606260395	-0.04699715089074556	30.30099645689675	36.37022876186728	-7.444465145572653	-21.31305769479228	-439.6138645382173	-43.94156756767643	-26.23715528068754	-3.313765571754236	-0.9739618952727636	-0.8352802065826354	10.98782839641726	-0.1599468620112326	3.166481002902099	-3.390931409081061	10.13007186938214	10.13007186938118	2.133330595507601	-0.7760220645710177	3.403872031777865	0.8115876498749683	-9.375535014664911e-09	1.113187521329925e-06	-4.749514466745003e-08	1.181682024884817e-07	-3.433495338129748e-07	2.611693914121008e-07	1.43058570461997e-07
0.03	0.04659636927975507	0.1076106041004999	0.9025057132303321	0.1316330811293757	-0.3700573534200084	-0.2232762325837508	-0.2159970914919691	0.209670157139478	0.2096701571394463	-0.1733309479357754	-0.1602011407404121	0.09175801939703823	0.07944164913501675	-0.09739445184050256	-0.02946169548001858	-0.02427122889430173	0.3256205324008132	-0.001795986405907446	0.09592530980760497	-0.1010762114653416	0.2990667914398702	0.2990667914399214	0.06881877702861258	-0.0193269033244448	0.1005227991066316	0.02709341141866575	0.1089564432914276	-0.04758524434752281	-0.008781220795420552	-0.244233781791759	0.1824116148794883	-0.09417007059513148	-0.04301555449310519	27.39443733491103	37.06668540602954	-7.292933177541945	-19.41291679980712	-439.6297861533542	-41.53514493676216	-26.23630152003369	-2.999378367926743	-0.9413125826782973	-0.7976484889587143	10.31024568441335	-0.09509679895705195	3.251535674099123	-3.364388222832188	9.59182300384524	9.59182300384974	2.10116741878897	-0.4480493073475332	3.241070666598871	0.8341241896202899	-1.444540027320173e-08	1.327371106840581e-06	-9.083329340522949e-08	1.485835530211525e-07	-4.870837981973365e-07	3.434227743424341e-07	1.767463423082195e-07
0.04	0.04547161906394111	0.1072692091415995	0.9022227694594577	0.1354042129958698	-0.3700800263359632	-0.2221597791808338	-0.2171692970891727	0.2131391559894223	0.2131391559894242	-0.1725380019537714	-0.1604210515955169	0.09292456764183575	0.07975423278086111	-0.1273355032378461	-0.03877590525715235	-0.03230304163052442	0.4280118938855618	-0.002681098319642525	0.1271670848388086	-0.1330039922297784	0.3942216664541835	0.3942216664542681	0.08972705305485081	-0.02459364653753133	0.1326142246582974	0.03544068637045082	0.1036996063361323	-0.0423557436600984	-0.007553517092356497	-0.2374942415339592	0.1735610800202647	-0.09513117512765633	-0.03903395809536243	24.53121425650814	37.77381953142273	-7.16396906193004	-17.55926321554067	-438.8501102957435	-38.94287373663301	-26.23388084539056	-3.04960006103576	-0.9241025932728848	-0.8184535156701145	10.27509934056028	-0.09226135336755255	2.928865129511397	-2.957832508752042	9.516267571160075	9.516267571160917	2.082784495336491	-0.7023438922991937	3.197003472197703	0.831064815011003	-1.939762655196575e-08	1.539208067637608e-06	-1.378037156571786e-07	1.789920710614555e-07	-6.310192054251676e-07	4.287729629535716e-07	2.105662082875013e-07
0.05	0.04405190146184117	0.1068356529725623	0.9018594494658568	0.1401849376874217	-0.3701104003727931	-0.2207376221033729	-0.218650720923646	0.2175459763274037	0.2175459763274001	-0.1715381038982434	-0.1606932125348746	0.0944068107765718	0.08015021209343277	-0.156545605287697	-0.04791772873095802	-0.04038478827009175	0.5277771209054589	-0.003387908656831123	0.1570992483830914	-0.1630559084625638	0.4866985062572688	0.4866985062573611	0.1101021726344605	-0.02978125125282475	0.1636299253672546	0.04370898955993203	0.1003995593034812	-0.04063328273556709	-0.006636769379469104	-0.2342210294995524	0.1681848288138298	-0.09397203677999005	-0.03664261542169643	22.89824183527476	37.46315445970144	-7.008013669097712	-16.45280016830766	-438.1343814467991	-38.77487651818856	-26.22901102904535	-2.847338214168699	-0.906546208920839	-0.8067372820477401	9.773849680362643	-0.05922738685952333	3.000697793931134	-2.995141249329629	9.046765566214857	9.046765566215328	1.992565048854728	-0.418432681368982	3.023229327676541	0.8175587794690503	-2.130004833394117e-08	1.536309087229434e-06	-1.483478146200969e-07	1.834662025528239e-07	-6.834050942145046e-07	4.313220900038722e-07	2.139901341321922e-07
0.06	0.04234195825178162	0.1063112137718881	0.9014145715970728	0.1459526377086716	-0.370147709815596	-0.2190210822250402	-0.2204259179342046	0.2228642397396514	0.2228642397396735	-0.1703389167749458	-0.161015542305503	0.09619308610989284	0.0806274435796106	-0.1853806248258633	-0.05695251158453801	-0.04861461666714958	0.6254069598316705	-0.004068179512613937	0.1860436450091469	-0.1917586274467963	0.576510281313641	0.5765102813137324	0.12958486659731	-0.03462741277710221	0.1934206643734802	0.05169112109149697	0.09709951227066986	-0.03891082181111527	-0.005720021666180224	-0.2309478174652457	0.1628085776073748	-0.09281289843242045	-0.03425127274813509	21.30467777895294	37.16125681077354	-6.871354125919789	-15.38387943349948	-436.6950279848753	-38.43628717735453	-26.22053870944768	-2.974583558698383	-0.902694469228296	-0.848069867168187	9.848021721823249	-0.08695345708635906	2.731311745865914	-2.687993059041237	8.98325462181749	8.983254621816616	1.904299371984514	-0.6340552540960731	2.952011131650751	0.7738304834275889	-2.307405729499916e-08	1.524368593507358e-06	-1.57358173655056e-07	1.868483598737108e-07	-7.319362664380101e-07	4.303848565674007e-07	2.161342309185846e-07
